<svg width="25" height="24" viewBox="0 0 25 24" fill="none" xmlns="http://www.w3.org/2000/svg">
<path d="M17.1318 3.26943C17.6405 2.37907 19 2.7401 19 3.76556V13C19 13.5523 18.5523 14 18 14H12.7232C11.9554 14 11.474 13.1705 11.8549 12.5039L17.1318 3.26943Z" fill="#9693A4"/>
<path d="M18.8682 20.7306C18.3595 21.6209 17 21.2599 17 20.2344V11C17 10.4477 17.4477 10 18 10H23.2768C24.0446 10 24.526 10.8295 24.1451 11.4961L18.8682 20.7306Z" fill="#9693A4"/>
<rect x="3" y="4" width="9" height="3" rx="1.5" fill="#D7D7E3"/>
<rect x="3" y="18" width="9" height="3" rx="1.5" fill="#D7D7E3"/>
<rect y="10" width="9" height="3" rx="1.5" fill="#D7D7E3"/>
</svg>
