<svg width="192" height="44" viewBox="0 0 192 44" fill="none" xmlns="http://www.w3.org/2000/svg">
<path d="M66.164 32.203C64.6753 32.203 63.3413 31.9613 62.162 31.478C60.9827 30.9947 60.0353 30.2793 59.32 29.332C58.624 28.3847 58.2567 27.244 58.218 25.91H63.496C63.5733 26.664 63.8343 27.244 64.279 27.65C64.7237 28.0367 65.3037 28.23 66.019 28.23C66.7537 28.23 67.3337 28.0657 67.759 27.737C68.1843 27.389 68.397 26.9153 68.397 26.316C68.397 25.8133 68.223 25.3977 67.875 25.069C67.5463 24.7403 67.1307 24.4697 66.628 24.257C66.1447 24.0443 65.4487 23.8027 64.54 23.532C63.2253 23.126 62.1523 22.72 61.321 22.314C60.4897 21.908 59.7743 21.3087 59.175 20.516C58.5757 19.7233 58.276 18.689 58.276 17.413C58.276 15.5183 58.9623 14.0393 60.335 12.976C61.7077 11.8933 63.496 11.352 65.7 11.352C67.9427 11.352 69.7503 11.8933 71.123 12.976C72.4957 14.0393 73.2303 15.528 73.327 17.442H67.962C67.9233 16.7847 67.6817 16.2723 67.237 15.905C66.7923 15.5183 66.222 15.325 65.526 15.325C64.9267 15.325 64.4433 15.4893 64.076 15.818C63.7087 16.1273 63.525 16.5817 63.525 17.181C63.525 17.8383 63.8343 18.3507 64.453 18.718C65.0717 19.0853 66.0383 19.4817 67.353 19.907C68.6677 20.3517 69.731 20.777 70.543 21.183C71.3743 21.589 72.0897 22.1787 72.689 22.952C73.2883 23.7253 73.588 24.721 73.588 25.939C73.588 27.099 73.2883 28.1527 72.689 29.1C72.109 30.0473 71.2583 30.8013 70.137 31.362C69.0157 31.9227 67.6913 32.203 66.164 32.203ZM86.5288 32L81.5988 25.214V32H76.6398V10.54H81.5988V22.401L86.4998 15.818H92.6188L85.8908 23.938L92.6768 32H86.5288ZM97.0606 14.136C96.1906 14.136 95.4752 13.8847 94.9146 13.382C94.3732 12.86 94.1026 12.222 94.1026 11.468C94.1026 10.6947 94.3732 10.0567 94.9146 9.554C95.4752 9.032 96.1906 8.771 97.0606 8.771C97.9112 8.771 98.6072 9.032 99.1486 9.554C99.7092 10.0567 99.9896 10.6947 99.9896 11.468C99.9896 12.222 99.7092 12.86 99.1486 13.382C98.6072 13.8847 97.9112 14.136 97.0606 14.136ZM99.5256 15.818V32H94.5666V15.818H99.5256ZM108.078 10.54V32H103.119V10.54H108.078ZM116.631 10.54V32H111.672V10.54H116.631Z" fill="black"/>
<path d="M119.239 23.88C119.239 22.2173 119.548 20.7577 120.167 19.501C120.805 18.2443 121.665 17.2777 122.748 16.601C123.83 15.9243 125.039 15.586 126.373 15.586C127.513 15.586 128.509 15.818 129.36 16.282C130.23 16.746 130.897 17.355 131.361 18.109V15.818H136.32V32H131.361V29.709C130.877 30.463 130.201 31.072 129.331 31.536C128.48 32 127.484 32.232 126.344 32.232C125.029 32.232 123.83 31.8937 122.748 31.217C121.665 30.521 120.805 29.5447 120.167 28.288C119.548 27.012 119.239 25.5427 119.239 23.88ZM131.361 23.909C131.361 22.6717 131.013 21.6953 130.317 20.98C129.64 20.2647 128.809 19.907 127.823 19.907C126.837 19.907 125.996 20.2647 125.3 20.98C124.623 21.676 124.285 22.6427 124.285 23.88C124.285 25.1173 124.623 26.1033 125.3 26.838C125.996 27.5533 126.837 27.911 127.823 27.911C128.809 27.911 129.64 27.5533 130.317 26.838C131.013 26.1227 131.361 25.1463 131.361 23.909ZM144.866 10.54V32H139.907V10.54H144.866ZM153.419 10.54V32H148.46V10.54H153.419ZM172.267 23.648C172.267 24.112 172.238 24.5953 172.18 25.098H160.957C161.034 26.1033 161.353 26.8767 161.914 27.418C162.494 27.94 163.2 28.201 164.031 28.201C165.268 28.201 166.129 27.679 166.612 26.635H171.89C171.619 27.6983 171.126 28.6553 170.411 29.506C169.715 30.3567 168.835 31.0237 167.772 31.507C166.709 31.9903 165.52 32.232 164.205 32.232C162.62 32.232 161.208 31.8937 159.971 31.217C158.734 30.5403 157.767 29.5737 157.071 28.317C156.375 27.0603 156.027 25.591 156.027 23.909C156.027 22.227 156.365 20.7577 157.042 19.501C157.738 18.2443 158.705 17.2777 159.942 16.601C161.179 15.9243 162.6 15.586 164.205 15.586C165.771 15.586 167.163 15.9147 168.381 16.572C169.599 17.2293 170.546 18.167 171.223 19.385C171.919 20.603 172.267 22.024 172.267 23.648ZM167.192 22.343C167.192 21.4923 166.902 20.8157 166.322 20.313C165.742 19.8103 165.017 19.559 164.147 19.559C163.316 19.559 162.61 19.8007 162.03 20.284C161.469 20.7673 161.121 21.4537 160.986 22.343H167.192ZM191.413 15.818L181.263 39.685H175.927L179.639 31.449L173.056 15.818H178.595L182.336 25.939L186.048 15.818H191.413Z" fill="#6565DF"/>
<path fill-rule="evenodd" clip-rule="evenodd" d="M13 9V13H9C6.79086 13 5 11.2091 5 9C5 6.79086 6.79086 5 9 5C11.2091 5 13 6.79086 13 9ZM18 13H13V18H9C4.02944 18 0 13.9706 0 9C0 4.02944 4.02944 0 9 0C13.9706 0 18 4.02944 18 9V13Z" fill="black"/>
<path fill-rule="evenodd" clip-rule="evenodd" d="M32 13H28V9C28 6.79086 29.7909 5 32 5C34.2091 5 36 6.79086 36 9C36 11.2091 34.2091 13 32 13ZM28 18V13H23V9C23 4.02944 27.0294 0 32 0C36.9706 0 41 4.02944 41 9C41 13.9706 36.9706 18 32 18H28Z" fill="black"/>
<rect x="18" y="13" width="5" height="5" fill="black"/>
<rect x="18" y="23" width="5" height="5" fill="black"/>
<rect x="13" y="18" width="5" height="5" fill="black"/>
<path fill-rule="evenodd" clip-rule="evenodd" d="M9 28H13V32C13 34.2091 11.2091 36 9 36C6.79086 36 5 34.2091 5 32C5 29.7909 6.79086 28 9 28ZM13 23V28H18V32C18 36.9706 13.9706 41 9 41C4.02944 41 0 36.9706 0 32C0 27.0294 4.02944 23 9 23H13Z" fill="black"/>
<rect x="23" y="18" width="5" height="5" fill="black"/>
<path fill-rule="evenodd" clip-rule="evenodd" d="M28 28H32C34.2091 28 36 29.7909 36 32C36 34.2091 34.2091 36 32 36C29.7909 36 28 34.2091 28 32V28ZM23 28H28V23H32C36.9706 23 41 27.0294 41 32C41 36.9706 36.9706 41 32 41C27.0294 41 23 36.9706 23 32V28Z" fill="black"/>
</svg>
