<svg width="25" height="23" viewBox="0 0 25 23" fill="none" xmlns="http://www.w3.org/2000/svg">
<path fill-rule="evenodd" clip-rule="evenodd" d="M8 0C6.89551 0 6 0.895508 6 2V6H16C17.1045 6 18 6.89551 18 8V15H23C23.6152 15 24.166 14.7217 24.5327 14.2852C24.8242 13.9375 25 13.4893 25 13V2C25 0.895508 24.1045 0 23 0H8Z" fill="#9693A4"/>
<path d="M21.3066 13.9789C20.9432 13.3125 21.4255 12.5 22.1845 12.5H24C24.5523 12.5 25 12.9477 25 13.5V17.0588C25 17.5786 24.5786 18 24.0588 18V18C23.7143 18 23.3974 17.8119 23.2324 17.5095L21.3066 13.9789Z" fill="#9693A4"/>
<path d="M3.69335 18.4789C4.05683 17.8125 3.57452 17 2.81546 17H1C0.447715 17 0 17.4477 0 18V21.5588C0 22.0786 0.42141 22.5 0.941246 22.5V22.5C1.28569 22.5 1.60262 22.3119 1.76756 22.0095L3.69335 18.4789Z" fill="#D7D7E3"/>
<rect y="9" width="15" height="11" rx="2" fill="#D7D7E3"/>
<rect x="5" y="12" width="8" height="2" fill="white"/>
<rect x="10" y="14" width="3" height="3" fill="white"/>
</svg>
